Coordinates
version=1
nRows=6
nColumns=63
inDegrees=yes

Units are S.I. units (second, meters, Newtons, ...)
If the header above contains a line with 'inDegrees', this indicates whether rotational values are in degrees (yes) or radians (no).

endheader
time	pelvis_tilt	pelvis_list	pelvis_rotation	pelvis_tx	pelvis_ty	pelvis_tz	hip_flexion_r	hip_adduction_r	hip_rotation_r	knee_angle_r	knee_angle_r_beta	ankle_angle_r	subtalar_angle_r	mtp_angle_r	hip_flexion_l	hip_adduction_l	hip_rotation_l	knee_angle_l	knee_angle_l_beta	ankle_angle_l	subtalar_angle_l	mtp_angle_l	L5_S1_Flex_Ext	L5_S1_Lat_Bending	L5_S1_axial_rotation	L4_L5_Flex_Ext	L4_L5_Lat_Bending	L4_L5_axial_rotation	L3_L4_Flex_Ext	L3_L4_Lat_Bending	L3_L4_axial_rotation	L2_L3_Flex_Ext	L2_L3_Lat_Bending	L2_L3_axial_rotation	L1_L2_Flex_Ext	L1_L2_Lat_Bending	L1_L2_axial_rotation	L1_T12_Flex_Ext	L1_T12_Lat_Bending	L1_T12_axial_rotation	Abs_r3	Abs_r2	Abs_r1	Abs_t1	Abs_t2	neck_flexion	neck_bending	neck_rotation	arm_flex_r	arm_add_r	arm_rot_r	elbow_flex_r	pro_sup_r	wrist_flex_r	wrist_dev_r	arm_flex_l	arm_add_l	arm_rot_l	elbow_flex_l	pro_sup_l	wrist_flex_l	wrist_dev_l
      0.00000000	      1.06916070	     -4.08071270	     88.85493154	      0.13662918	      0.91832003	      0.36254896	     -0.77185243	     -2.86068143	    -18.53282814	      7.66449340	      0.13377065	     28.89296971	     17.43248378	      0.00000000	      1.65840546	      3.77482635	      7.14475324	     11.91538064	      0.20796262	     18.61403694	    -16.54732810	      0.00000000	      0.10299210	     -0.19190917	     -0.49646208	      0.19126663	     -0.25523919	     -0.52749096	      0.16920572	     -0.46660795	     -0.52749096	      0.11770967	     -0.46660795	     -0.43440432	      0.09563846	     -0.39134118	     -0.40337544	      0.05884969	     -0.29726730	     -0.37234656	      0.73566227	     -2.17091490	     -2.76117315	      0.00000000	      0.00000000	     25.56620847	      4.12304114	     10.06111255	      6.77696192	    -13.48039436	     46.90616939	     72.55732504	     87.95222202	     31.75913190	      8.23509699	     -4.55503665	    -22.00701839	     37.07061511	     82.68123985	     88.64088810	     25.74871526	      3.75305087
      0.01666667	      1.33045390	     -4.01193718	     88.66603489	      0.13619909	      0.91841036	      0.36217559	     -0.77829115	     -2.63850793	    -18.25053547	      7.75214911	      0.13530053	     29.17731536	     17.69501560	      0.00000000	      1.56396789	      3.55020052	      5.83334062	     12.13166546	      0.21173751	     18.24344011	    -16.60124058	      0.00000000	      0.11373252	     -0.13518456	     -0.52585074	      0.21121267	     -0.17979547	     -0.55871641	      0.18685116	     -0.32868775	     -0.55871641	      0.12998490	     -0.32868775	     -0.46011939	      0.10561202	     -0.27566836	     -0.42725372	      0.06498676	     -0.20940089	     -0.39438805	      0.81238003	     -1.52923483	     -2.92462404	      0.00000000	      0.00000000	     26.29435255	      2.92565856	     11.28991848	      7.26157138	    -13.80058946	     47.58673117	     72.59510936	     88.28899977	     30.89817834	      9.02283127	     -5.48733998	    -22.49714477	     37.80415283	     82.51721261	     88.68942502	     25.10675355	      2.03991638
      0.03333333	      1.45763552	     -3.99279974	     88.21652340	      0.13621138	      0.91857820	      0.36187175	     -0.70984637	     -2.56608422	    -17.77096017	      7.83734621	      0.13678750	     29.42305186	     17.89496806	      0.00000000	      1.49953682	      3.43469057	      4.45058865	     12.21322706	      0.21316102	     18.21867570	    -16.30697589	      0.00000000	      0.12393957	     -0.10473660	     -0.43105542	      0.23016817	     -0.13929967	     -0.45799639	      0.20362032	     -0.25465656	     -0.45799639	      0.14165053	     -0.25465656	     -0.37717350	      0.11509028	     -0.21357886	     -0.35023253	      0.07081907	     -0.16223699	     -0.32329157	      0.88528795	     -1.18480131	     -2.39740095	      0.00000000	      0.00000000	     26.73499977	      2.01845292	     11.62380521	      7.31998092	    -14.11445458	     47.71388038	     72.86535539	     88.48365978	     30.09593049	      9.76923241	     -5.81042510	    -22.83746105	     38.69224162	     82.42188859	     88.72651641	     24.40636117	      1.04556823
      0.05000000	      1.54651987	     -4.05695434	     87.76359281	      0.13628670	      0.91868459	      0.36157665	     -0.52372145	     -2.54081876	    -17.36283102	      8.00325282	      0.13968311	     29.63818303	     17.95004387	      0.00000000	      1.51086136	      3.32797758	      3.15972504	     12.19262177	      0.21280139	     18.62263303	    -15.56471829	      0.00000000	      0.14084901	     -0.08983606	     -0.25529822	      0.26157070	     -0.11948196	     -0.27125436	      0.23140084	     -0.21842740	     -0.27125436	      0.16097633	     -0.21842740	     -0.22338595	      0.13079239	     -0.18319370	     -0.20742981	      0.08048112	     -0.13915606	     -0.19147367	      1.00607040	     -1.01624349	     -1.41989214	      0.00000000	      0.00000000	     26.97964556	      1.60347292	     11.16589068	      6.84767053	    -14.42616528	     47.08434377	     73.39025809	     88.60641983	     29.71625957	     10.53031335	     -5.43734042	    -23.14011704	     40.07858340	     82.25733033	     88.74739372	     23.67170974	      0.03183526
      0.06666667	      1.55702157	     -4.15164734	     87.28226144	      0.13646909	      0.91879135	      0.36134240	     -0.30155645	     -2.60285456	    -17.03547726	      8.18080593	      0.14278200	     29.83994772	     18.01055323	      0.00000000	      1.51005904	      3.34275482	      2.61646095	     12.01949395	      0.20977974	     18.88940215	    -15.48774344	      0.00000000	      0.15596810	     -0.08951472	     -0.05426213	      0.28964837	     -0.11905457	     -0.05765351	      0.25624000	     -0.21764608	     -0.05765351	      0.17825595	     -0.21764608	     -0.04747936	      0.14483198	     -0.18253841	     -0.04408798	      0.08912018	     -0.13865830	     -0.04069660	      1.11406458	     -1.01260838	     -0.30178968	      0.00000000	      0.00000000	     27.12118683	      1.33905858	     10.37220745	      6.25366981	    -14.68899546	     46.30085656	     73.97380404	     88.70424361	     29.59121922	     11.27608472	     -4.95956275	    -23.21880427	     40.96981406	     82.22554554	     88.75403744	     23.71810515	      0.12691536
      0.08333333	      1.52397568	     -4.26840044	     86.74411082	      0.13675609	      0.91884641	      0.36124682	     -0.03303333	     -2.70544588	    -16.58247507	      8.37154469	      0.14611102	     29.99743117	     17.95488142	      0.00000000	      1.50974774	      3.43339108	      2.58984416	     11.75403576	      0.20514662	     19.09429967	    -15.92416649	      0.00000000	      0.16996267	     -0.09692060	      0.16263676	      0.31563768	     -0.12890440	      0.17280156	      0.27923168	     -0.23565275	      0.17280156	      0.19425034	     -0.23565275	      0.14230717	      0.15782734	     -0.19764049	      0.13214237	      0.09711667	     -0.15013001	      0.12197757	      1.21402639	     -1.09638523	      0.90453689	      0.00000000	      0.00000000	     27.17644808	      1.26866581	      9.41772879	      5.58965590	    -14.88547460	     45.40475260	     74.58792076	     88.77567102	     29.69819565	     12.09880222	     -4.38494735	    -23.21001471	     41.69191760	     82.26111687	     88.74085788	     23.82744430	      0.52595477
